<?xml version="1.0" encoding="UTF-8"?>
<svg width="365px" height="448px" viewBox="0 0 365 448" version="1.1" xmlns="http://www.w3.org/2000/svg" xmlns:xlink="http://www.w3.org/1999/xlink">
    <!-- Generator: Sketch 42 (36781) - http://www.bohemiancoding.com/sketch -->
    <title>Logo Back</title>
    <desc>Created with Sketch.</desc>
    <defs></defs>
    <g id="Page-Gamme" stroke="none" stroke-width="1" fill="none" fill-rule="evenodd">
        <g id="Page-Gamme-v3" transform="translate(-537.000000, -149.000000)" fill="#F4F5F6">
            <g id="Logo-Back" transform="translate(537.000000, 149.000000)">
                <path d="M308.337056,374.47729 C249.348381,366.721154 217.26608,311.559201 252.93496,239.471232 C259.995597,225.087361 269.461353,215.91748 278.491093,226.747537 C283.892059,233.219631 289.321155,239.704694 294.736186,246.176788 C300.277802,253.349269 299.307316,263.725371 294.398626,270.392016 C266.718675,308.498251 279.686619,353.751026 317.071431,363.776935 C334.34327,368.3943 341.727404,363.776935 342.8948,367.084318 C344.638862,371.987026 324.343044,376.578451 308.337056,374.47729 L308.337056,374.47729 Z" id="Shape"></path>
                <path d="M271.25334,406.095612 C166.202694,392.42121 109.076561,295.013626 172.600144,167.836535 C185.155493,142.457771 202.008689,126.259656 218.100954,145.380642 C227.753495,156.80173 237.391945,168.235693 247.044486,179.682533 C256.880213,192.326848 255.189257,210.623765 246.410377,222.379631 C197.133099,289.631423 220.214649,369.501778 286.796045,387.180643 C317.557354,395.344081 330.718629,387.180643 332.818232,393.000633 C335.876045,401.640486 299.731859,409.765296 271.25334,406.095612 L271.25334,406.095612 Z" id="Shape"></path>
                <path d="M205.650702,446.475585 C33.1740455,423.783857 -60.6248843,262.19555 43.6737173,51.1366972 C64.296078,9.05385704 91.9694151,-17.8152113 118.358218,13.9016352 C134.219424,32.8543849 150.052706,51.7942416 165.89995,70.7985634 C182.040403,91.7755184 179.275862,122.164383 164.838813,141.671533 C83.955038,253.247789 121.834838,385.723641 231.159878,415.10685 C281.647662,428.683207 303.261348,415.10685 306.696081,424.789513 C311.764407,439.113666 252.410544,452.625559 205.650702,446.475585 L205.650702,446.475585 Z" id="Shape"></path>
                <ellipse id="Oval" transform="translate(332.000000, 313.000000) rotate(2.739664) translate(-332.000000, -313.000000) " cx="332" cy="313" rx="33" ry="36"></ellipse>
            </g>
        </g>
    </g>
</svg>